G75*
G70*
%OFA0B0*%
%FSLAX24Y24*%
%IPPOS*%
%LPD*%
%AMOC8*
5,1,8,0,0,1.08239X$1,22.5*
%
%ADD10C,0.0160*%
D10*
X000190Y016183D02*
X000209Y016968D01*
X000267Y017751D01*
X000363Y018531D01*
X000497Y019304D01*
X000669Y020071D01*
X000879Y020828D01*
X001125Y021573D01*
X001408Y022306D01*
X001726Y023024D01*
X002079Y023725D01*
X002466Y024409D01*
X002886Y025072D01*
X003339Y025714D01*
X003822Y026333D01*
X004335Y026928D01*
X004876Y027497D01*
X005445Y028038D01*
X006040Y028551D01*
X006659Y029034D01*
X007301Y029487D01*
X007964Y029907D01*
X008648Y030294D01*
X009349Y030647D01*
X010067Y030965D01*
X010800Y031248D01*
X011545Y031494D01*
X012302Y031704D01*
X013069Y031876D01*
X013842Y032010D01*
X014622Y032106D01*
X015405Y032164D01*
X016190Y032183D01*
X016975Y032164D01*
X017758Y032106D01*
X018538Y032010D01*
X019311Y031876D01*
X020078Y031704D01*
X020835Y031494D01*
X021580Y031248D01*
X022313Y030965D01*
X023031Y030647D01*
X023732Y030294D01*
X024416Y029907D01*
X025079Y029487D01*
X025721Y029034D01*
X026340Y028551D01*
X026935Y028038D01*
X027504Y027497D01*
X028045Y026928D01*
X028558Y026333D01*
X029041Y025714D01*
X029494Y025072D01*
X029914Y024409D01*
X030301Y023725D01*
X030654Y023024D01*
X030972Y022306D01*
X031255Y021573D01*
X031501Y020828D01*
X031711Y020071D01*
X031883Y019304D01*
X032017Y018531D01*
X032113Y017751D01*
X032171Y016968D01*
X032190Y016183D01*
X032171Y015398D01*
X032113Y014615D01*
X032017Y013835D01*
X031883Y013062D01*
X031711Y012295D01*
X031501Y011538D01*
X031255Y010793D01*
X030972Y010060D01*
X030654Y009342D01*
X030301Y008641D01*
X029914Y007957D01*
X029494Y007294D01*
X029041Y006652D01*
X028558Y006033D01*
X028045Y005438D01*
X027504Y004869D01*
X026935Y004328D01*
X026340Y003815D01*
X025721Y003332D01*
X025079Y002879D01*
X024416Y002459D01*
X023732Y002072D01*
X023031Y001719D01*
X022313Y001401D01*
X021580Y001118D01*
X020835Y000872D01*
X020078Y000662D01*
X019311Y000490D01*
X018538Y000356D01*
X017758Y000260D01*
X016975Y000202D01*
X016190Y000183D01*
X015405Y000202D01*
X014622Y000260D01*
X013842Y000356D01*
X013069Y000490D01*
X012302Y000662D01*
X011545Y000872D01*
X010800Y001118D01*
X010067Y001401D01*
X009349Y001719D01*
X008648Y002072D01*
X007964Y002459D01*
X007301Y002879D01*
X006659Y003332D01*
X006040Y003815D01*
X005445Y004328D01*
X004876Y004869D01*
X004335Y005438D01*
X003822Y006033D01*
X003339Y006652D01*
X002886Y007294D01*
X002466Y007957D01*
X002079Y008641D01*
X001726Y009342D01*
X001408Y010060D01*
X001125Y010793D01*
X000879Y011538D01*
X000669Y012295D01*
X000497Y013062D01*
X000363Y013835D01*
X000267Y014615D01*
X000209Y015398D01*
X000190Y016183D01*
M02*
